<svg xmlns="http://www.w3.org/2000/svg" viewBox="0 0 64 64" aria-label="Google Scholar">
  <circle cx="32" cy="32" r="31" fill="#fff"/>
  <path fill="#000" d="M34.6 8.6c-8.8 0-15.4 5.5-15.4 12.9 0 3.9 2.1 7.4 5.4 9.7-2.8 1.4-4.4 3.3-4.4 5.8 0 1.9.8 3.4 2.3 4.5-6.7 1.5-10.7 4.9-10.7 9.3 0 6.7 8.6 10.1 18.3 10.1 10.8 0 18.1-5 18.1-11.7 0-6.1-4.8-9.5-13.4-9.5h-6.3c-3.4 0-5.1-.8-5.1-2.6 0-1.5 1.1-2.7 3.2-3.6 2.3.8 4.9 1.2 7.8 1.2 8.8 0 15.3-5.4 15.3-12.9 0-2.7-.8-5.1-2.4-7.1l5.5-4.5H39.4c-1.5-1-3.1-1.6-4.8-1.6Zm-.2 3.2c5.6 0 9.6 4.3 9.6 10.2 0 5.8-3.8 9.5-9.2 9.5-5.7 0-9.7-4.3-9.7-10.2 0-5.8 3.9-9.5 9.3-9.5Zm-6.5 32.5h6.7c6.1 0 9.1 2 9.1 5.9 0 4.4-5.2 7.4-13.1 7.4-7.7 0-13.5-2.5-13.5-6.5 0-3.3 3.9-5.7 10.8-6.8Z"/>
  <path fill="#000" d="M52.2 14.4c1.9 3.5 3.1 7.1 3.1 10.2 0 3.4-1.4 5.4-3.3 5.4-1.9 0-3.2-2-3.2-5.3 0-3 1.2-6.7 3.4-10.3Z"/>
</svg>
